<svg viewBox="0 0 26 26" fill="none" xmlns="http://www.w3.org/2000/svg">
<path d="M20.7143 25H25V22.4286C25 20.0616 23.0812 18.1429 20.7143 18.1429M14.7143 6.1395C14.7143 8.97822 12.412 11.279 9.57143 11.279C6.73086 11.279 4.42857 8.97822 4.42857 6.1395C4.42857 3.30078 6.73086 1 9.57143 1C12.412 1 14.7143 3.30078 14.7143 6.1395ZM18.1429 24.9844H1C1 23.7672 1 22.6092 1 21.5605C1 18.7202 3.30254 16.4185 6.14286 16.4185H13C15.8403 16.4185 18.1429 18.7202 18.1429 21.5605C18.1429 22.6092 18.1429 23.7672 18.1429 24.9844ZM19.8571 14.7143C17.9636 14.7143 16.4286 13.1793 16.4286 11.2857C16.4286 9.39217 17.9636 7.85714 19.8571 7.85714C21.7507 7.85714 23.2857 9.39217 23.2857 11.2857C23.2857 13.1793 21.7507 14.7143 19.8571 14.7143Z" stroke="#9BA2B0" stroke-width="1.4"/>
</svg>
